<svg width="30" height="32" viewBox="0 0 30 32" fill="none" xmlns="http://www.w3.org/2000/svg">
<path fill-rule="evenodd" clip-rule="evenodd" d="M17.71 11.3489C18.7982 10.8629 20.1803 10.1476 21.5566 9.1675C21.8678 9.71112 21.9135 10.1855 21.7717 10.5686C21.6712 10.8385 21.4741 11.0733 21.2116 11.2601C20.9273 11.462 20.5693 11.609 20.1712 11.6884C19.4159 11.8397 18.5265 11.7514 17.71 11.3489ZM18.0404 16.3281L19.5199 17.0733C16.583 18.5496 15.8501 21.291 14.963 23.9611C13.9267 21.291 13.0402 18.5496 10.0207 17.0733L11.4585 16.3281C11.5983 16.2809 11.7165 16.1955 11.7962 16.0839C11.8759 15.9724 11.913 15.8406 11.9022 15.7073C11.6985 13.2067 12.431 12.1009 13.4413 11.4066C13.8036 11.1578 14.2033 11.033 14.6011 11.033C14.9989 11.033 15.4056 11.1578 15.782 11.4066C16.8312 12.1009 17.6256 13.2067 17.5619 15.7073C17.5586 15.8406 17.6031 15.9724 17.689 16.0839C17.775 16.1955 17.898 16.2809 18.0404 16.3281ZM14.2923 0C15.9794 0.0400364 17.6778 0.329531 19.1604 0.892696C20.1872 1.28318 21.1494 1.79898 22.025 2.41578C22.4203 2.69423 22.747 2.96323 23.1073 3.2729C24.0563 3.30189 25.4159 2.37022 26.0348 1.49845C25.0175 4.7088 20.0714 8.49994 16.6142 9.9506C16.6127 9.95006 16.6118 9.94932 16.6107 9.94868C15.9711 9.52474 15.2591 9.31277 14.553 9.31277C13.8469 9.31277 13.1469 9.52474 12.531 9.94868C12.53 9.94921 12.529 9.95017 12.5276 9.9506C8.98911 8.49994 3.83078 4.7088 2.63374 1.49845C3.30136 2.37022 4.71318 3.30189 5.66056 3.2729C6.00358 2.96333 6.31519 2.69423 6.69487 2.41578C7.53586 1.79898 8.46926 1.28318 9.47412 0.892696C10.9254 0.329531 12.6075 0.0400364 14.2923 0ZM11.51 11.3489C10.3946 10.8629 8.97243 10.1476 7.54138 9.1675C7.26062 9.71112 7.24148 10.1855 7.40457 10.5686C7.52031 10.8385 7.73053 11.0733 8.00339 11.2601C8.29913 11.462 8.66538 11.609 9.06792 11.6884C9.83172 11.8397 10.716 11.7514 11.51 11.3489Z" fill="white"/>
<path fill-rule="evenodd" clip-rule="evenodd" d="M22.946 7.75066C23.6738 7.06375 24.3108 6.30345 24.8212 5.625L25.1029 6.08601C26.0125 7.66362 26.5061 9.2349 26.5556 11.0032L26.6322 13.8092L26.6892 15.2638C26.8517 18.8349 27.8009 22.448 29.8144 25.7545L25.7124 22.8014L22.986 27.0063L19.9265 24.4437L15.3495 31.503L10.3776 24.4438L7.46156 27.0064L4.49995 22.8015L0.563038 25.7546C2.39163 22.4481 3.13862 18.835 3.10154 15.2639L3.0771 13.8093L2.99676 11.0033C2.94729 9.2349 3.35291 7.66362 4.17449 6.08611L4.43031 5.62511C4.9786 6.30355 5.65802 7.06375 6.42442 7.75077L6.20345 8.19232C5.77416 9.04992 5.6509 10.0088 6.02951 10.9208C6.27357 11.5082 6.7031 12.0119 7.24943 12.3965C7.7799 12.7699 8.40238 13.0216 9.05042 13.1538C9.47256 13.2399 9.90118 13.2753 10.3257 13.2633C10.2409 13.7753 10.2124 14.3063 10.2248 14.8474L6.48905 16.8426L9.45668 18.3369C9.69388 18.4564 9.92033 18.5932 10.1337 18.7461C12.6011 20.7193 14.2146 26.557 15.291 29.4083C16.208 26.557 17.4949 20.7193 19.852 18.7461C20.0568 18.5932 20.2756 18.4563 20.5062 18.3369L23.3902 16.8426L19.5427 14.8474C19.5248 14.3063 19.4667 13.7753 19.3532 13.2633C19.7784 13.2753 20.205 13.2399 20.6224 13.1538C21.263 13.0216 21.8715 12.7699 22.381 12.3965C22.9057 12.0119 23.3072 11.5082 23.5182 10.9208C23.8459 10.0088 23.6689 9.05003 23.1918 8.19232L22.946 7.75066Z" fill="white"/>
</svg>
